# xmcd
#
# Track frame offsets: 
#        150
#        22119
#        43240
#        60332
#        81452
#        103925
#        126275
#        147460
#        163987
#        183830
#
# Disc length: 2725 seconds
#
# Revision: 1
# Processed by: cddbd v1.5.2PL0 Copyright (c) Steve Scherf et al.
# Submitted via: ExactAudioCopy v1.3
#
DISCID=940aa30a
DTITLE=Jacky Cheung ??? - ???????
DYEAR=1997
DGENRE=HK Pop
TTITLE0=???????
TTITLE1=????
TTITLE2=??
TTITLE3=???????
TTITLE4=??
TTITLE5=????
TTITLE6=???????????
TTITLE7=?
TTITLE8=??
TTITLE9=????
EXTD=
EXTT0=
EXTT1=
EXTT2=
EXTT3=
EXTT4=
EXTT5=
EXTT6=
EXTT7=
EXTT8=
EXTT9=
PLAYORDER=
